<svg width="400" height="189" viewBox="0 0 400 189" fill="none" xmlns="http://www.w3.org/2000/svg">
<path fill-rule="evenodd" clip-rule="evenodd" d="M207.328 0.0299674C271.669 0.935226 322.425 28.9852 343.375 65.2056C365.692 103.79 362.957 149.589 307.898 173.905C251.48 198.821 174.492 189.553 117.881 164.792C62.3385 140.499 28.7393 100.114 49.932 61.0769C71.2189 21.8659 138.114 -0.943835 207.328 0.0299674Z" fill="#413E3E"/>
<path d="M39.0677 73.7732C40.188 71.7756 40.9641 69.5958 41.1665 67.3552C36.564 69.4675 26.8797 73.3683 17.2021 73.8137C16.1358 73.8609 15.2045 73.9419 14.3879 74.0431C15.6162 76.1757 16.9929 78.0181 18.7408 79.7727C22.0071 83.0458 25.5772 86.1772 27.0214 90.7325C28.7963 86.0489 31.1111 83.228 34.5664 79.7727C36.3885 77.9506 37.8057 76.0205 39.0677 73.7732Z" fill="white"/>
<mask id="mask0_970_321" style="mask-type:luminance" maskUnits="userSpaceOnUse" x="0" y="31" width="53" height="115">
<path d="M0 31.0881H52.9835V145.113H0V31.0881Z" fill="white"/>
</mask>
<g mask="url(#mask0_970_321)">
<path d="M47.638 136.832H46.295C46.9969 136.036 47.6313 134.896 48.1712 133.85C49.1227 132.021 49.8381 130.111 50.216 128.133C31.8395 121.884 27.3786 122.006 26.913 102.118C22.7221 123.902 23.9773 125.164 2.77984 128.16C3.15776 130.138 3.87311 132.014 4.82467 133.85C5.36456 134.889 5.99894 136.036 6.70079 136.832H5.35782C4.81118 136.036 4.31178 135.24 3.86637 134.389C1.40986 129.659 0.478552 124.273 2.58413 119.225C3.6909 116.566 5.22959 114.103 6.91 111.775C9.75118 107.82 13.058 104.264 15.9734 100.376C18.4434 97.0763 20.9269 93.1418 20.9269 88.8767C20.9269 86.4202 20.5018 84.1864 19.1655 82.0943C17.7888 79.9482 15.5483 78.1194 13.7464 76.3107C10.8107 73.3751 8.52292 70.2775 6.49159 66.6467C3.65041 61.5852 2.19271 55.8286 3.51544 50.0653C4.49399 45.8204 6.82227 42.3246 9.89965 39.4159H43.0962C46.1803 42.3246 48.5086 45.8204 49.4804 50.0653C50.8031 55.8286 49.3522 61.6055 46.5042 66.6737C44.4729 70.2977 42.1851 73.3886 39.2495 76.3242C37.4476 78.1329 35.207 79.955 33.8371 82.1011C32.4941 84.1999 32.0757 86.4269 32.0757 88.8834C32.0757 93.1486 34.5524 97.0898 37.0224 100.383C39.9378 104.27 43.2447 107.84 46.0926 111.788C47.773 114.123 49.3049 116.593 50.4117 119.252C52.5173 124.307 51.586 129.659 49.1295 134.389C48.6841 135.24 48.1847 136.036 47.638 136.832ZM49.2239 137.028C52.2001 132.291 54.5216 125.448 51.7142 118.719C46.7472 106.781 33.4861 98.1628 33.4861 88.8834C33.4861 79.6041 40.1133 80.974 47.7392 67.3823C53.3946 57.2931 52.4295 47.0824 45.1005 39.4159H48.765C50.054 39.4159 50.9921 38.2754 50.9921 36.9797V33.5581C50.9921 32.2624 50.054 31.0881 48.765 31.0881H4.23754C2.9418 31.0881 1.82153 32.2624 1.82153 33.5581V36.9797C1.82153 38.2754 2.9418 39.4159 4.23754 39.4159H7.8953C0.566285 47.0824 -0.398771 57.2931 5.26333 67.3823C12.8825 80.974 19.5165 79.6243 19.5165 88.9037C19.5165 98.1898 6.25538 106.794 1.28164 118.726C-1.51904 125.461 0.708005 132.297 3.6909 137.035C2.64486 137.271 1.82153 138.209 1.82153 139.323V142.744C1.82153 144.033 2.9418 145.154 4.23754 145.154H48.765C50.054 145.154 50.9921 144.033 50.9921 142.744V139.323C50.9921 138.209 50.2632 137.264 49.2239 137.028Z" fill="white"/>
</g>
<path d="M68.7105 89.2973V71.6428H85.0692V89.2973H95.0572V101.796H85.0692V116.886C85.0692 121.259 86.2974 123.445 88.7674 123.445C89.3951 123.445 90.0429 123.331 90.711 123.094C91.3927 122.845 91.9258 122.595 92.3037 122.339L92.8436 121.988L96.9198 135.215C93.4105 137.172 89.3951 138.157 84.8802 138.157C81.8028 138.157 79.1439 137.617 76.9168 136.538C74.7033 135.458 73.0161 134.014 71.8689 132.192C70.7351 130.376 69.9252 128.466 69.4393 126.469C68.9534 124.458 68.7105 122.312 68.7105 120.044V101.796H61.8539V89.2973H68.7105Z" fill="white"/>
<path d="M96.1747 62.8429C98.0778 60.9398 100.359 59.9814 103.004 59.9814C105.663 59.9814 107.951 60.9398 109.861 62.8429C111.784 64.7527 112.749 67.0405 112.749 69.6995C112.749 72.3449 111.784 74.6327 109.861 76.5561C107.951 78.466 105.663 79.4175 103.004 79.4175C100.359 79.4175 98.0778 78.466 96.1747 76.5561C94.2648 74.6327 93.3132 72.3449 93.3132 69.6995C93.3132 67.0405 94.2648 64.7527 96.1747 62.8429ZM94.609 89.2975V136.781H110.968V89.2975H94.609Z" fill="white"/>
<path d="M114.684 136.781V89.2973H131.043V94.3182H131.232C135.497 90.0531 140.032 87.9205 144.837 87.9205C148.292 87.9205 151.532 88.6359 154.555 90.0531C157.579 91.4771 159.86 93.6636 161.412 96.6128C166.217 90.8224 171.46 87.9205 177.15 87.9205C182.204 87.9205 186.55 89.3445 190.188 92.1857C193.819 95.0133 195.641 99.4472 195.641 105.494V136.781H179.255V109.948C179.255 107.411 178.56 105.298 177.177 103.604C175.786 101.917 173.708 101.067 170.941 101.067C168.525 101.067 166.689 101.796 165.434 103.253C164.172 104.698 163.477 106.432 163.355 108.463V136.781H146.97V109.948C146.97 107.411 146.275 105.298 144.891 103.604C143.501 101.917 141.422 101.067 138.655 101.067C136.118 101.067 134.208 101.863 132.933 103.442C131.671 105.008 131.043 106.871 131.043 109.03V136.781H114.684Z" fill="white"/>
<path d="M245.975 115.32H211.557C211.557 118.654 212.637 121.117 214.796 122.716C216.956 124.323 219.291 125.119 221.815 125.119C224.474 125.119 226.572 124.768 228.104 124.066C229.65 123.351 231.411 121.947 233.395 119.855L245.219 125.767C240.286 134.027 232.086 138.157 220.627 138.157C213.46 138.157 207.319 135.714 202.19 130.815C197.074 125.902 194.523 119.99 194.523 113.079C194.523 106.169 197.074 100.25 202.19 95.317C207.319 90.3905 213.46 87.9205 220.627 87.9205C228.145 87.9205 234.266 90.1003 238.983 94.4532C243.694 98.7926 246.056 105.001 246.056 113.079C246.056 114.2 246.029 114.942 245.975 115.32ZM212.016 106.25H230.048C229.684 103.787 228.712 101.89 227.133 100.554C225.567 99.2245 223.549 98.5564 221.086 98.5564C218.366 98.5564 216.207 99.2717 214.607 100.689C213.001 102.113 212.137 103.969 212.016 106.25Z" fill="white"/>
<path d="M266.499 87.9205C269.212 87.9205 271.898 88.2377 274.544 88.8653C277.203 89.4795 279.187 90.0936 280.483 90.701L282.426 91.6188L277.054 102.363C273.343 100.385 269.826 99.3932 266.499 99.3932C264.644 99.3932 263.328 99.6024 262.558 100.014C261.802 100.412 261.424 101.161 261.424 102.255C261.424 102.511 261.451 102.761 261.505 103.01C261.559 103.247 261.674 103.469 261.856 103.685C262.052 103.901 262.221 104.09 262.369 104.252C262.531 104.414 262.788 104.59 263.152 104.765C263.53 104.947 263.827 105.082 264.043 105.17C264.259 105.265 264.61 105.406 265.096 105.602C265.595 105.784 265.973 105.919 266.229 106.007C266.479 106.101 266.891 106.243 267.471 106.439C268.065 106.621 268.51 106.736 268.821 106.79C270.724 107.35 272.391 107.971 273.815 108.652C275.232 109.341 276.73 110.265 278.296 111.433C279.875 112.607 281.103 114.092 281.967 115.887C282.831 117.669 283.263 119.707 283.263 121.988C283.263 132.772 275.765 138.157 260.777 138.157C257.375 138.157 254.143 137.631 251.086 136.592C248.042 135.552 245.835 134.506 244.472 133.46L242.447 131.787L249.115 120.584C249.601 121.016 250.235 121.529 251.032 122.123C251.841 122.703 253.286 123.499 255.378 124.525C257.483 125.537 259.305 126.037 260.858 126.037C264.259 126.037 265.96 124.903 265.96 122.636C265.96 121.576 265.528 120.759 264.664 120.179C263.8 119.585 262.329 118.924 260.264 118.181C258.192 117.446 256.572 116.771 255.405 116.157C252.435 114.611 250.087 112.863 248.359 110.92C246.631 108.976 245.768 106.405 245.768 103.199C245.768 98.3809 247.63 94.6287 251.355 91.9427C255.094 89.2635 260.142 87.9205 266.499 87.9205Z" fill="white"/>
<path d="M342.189 60.4398V109.678C342.189 119.058 339.658 126.145 334.603 130.95C329.542 135.755 322.138 138.157 312.387 138.157C302.648 138.157 295.245 135.755 290.17 130.95C285.109 126.145 282.585 119.058 282.585 109.678V60.4398H299.996V104.576C299.996 110.751 300.968 115.043 302.911 117.452C304.855 119.848 308.013 121.043 312.387 121.043C316.773 121.043 319.945 119.848 321.889 117.452C323.832 115.043 324.804 110.751 324.804 104.576V60.4398H342.189Z" fill="white"/>
<path d="M393.332 95.1821C397.773 100.028 400 105.966 400 112.998C400 120.037 397.773 125.996 393.332 130.869C388.905 135.728 383.263 138.157 376.407 138.157C370.124 138.157 364.941 136.187 360.858 132.246V160.833H344.499V89.2973H360.696V94.6692H360.858C364.941 90.1746 370.124 87.9205 376.407 87.9205C383.263 87.9205 388.905 90.3433 393.332 95.1821ZM379.403 121.07C381.543 118.964 382.616 116.278 382.616 112.998C382.616 109.725 381.597 107.06 379.565 105.008C377.527 102.943 374.848 101.904 371.521 101.904C368.295 101.904 365.649 102.956 363.584 105.062C361.533 107.154 360.507 109.8 360.507 112.998C360.507 116.278 361.567 118.964 363.692 121.07C365.811 123.162 368.423 124.201 371.521 124.201C374.652 124.201 377.277 123.162 379.403 121.07Z" fill="white"/>
</svg>
